# xmcd
#
# Track frame offsets: 
#        150
#        674
#        17858
#        37478
#        53401
#        71342
#        87578
#        102381
#        118384
#        133032
#        150918
#        167239
#        182013
#        201651
#        217476
#        231894
#        246116
#        261900
#        277822
#        294079
#        308938
#        325385
#        343725
#
# Disc length: 4792 seconds
#
# Revision: 0
# Processed by: cddbd v1.5.2PL0 Copyright (c) Steve Scherf et al.
# Submitted via: ExactAudioCopy v0.99pb4
#
DISCID=6112b617
DTITLE=Various Artist - prevue promo 1091A-1
DYEAR=2002
DGENRE=pop
TTITLE0=blank - data
TTITLE1=Bryan Adams - Here I Am( Movie "SPIRIT Stallion Of The Cimarro
TTITLE1=n")
TTITLE2=Elton John - Original Sin
TTITLE3=Carole King - Monday Without You
TTITLE4=Pet Shop Boys - Home And Dry
TTITLE5=Stretch Princess - Freakshow
TTITLE6=Seven And The Sun - Walk With Me(Lyric!! )
TTITLE7=Jill Scott - Gimme(Re-Service)
TTITLE8=Kaci - Just An Old Boyfriend(Re-Service)
TTITLE9=Pink(Real Name - Alecia Moore) - Just Like A Pill((Lyric!!)
TTITLE10=Silent Nick - Palladic(Instrumental)
TTITLE11=Jene(pronounced "Jen-nee") - Get Into Something
TTITLE12=Jay-Z - Song Cry
TTITLE13=NB Ridaz feat. Nichole - I Wanna Luv
TTITLE14=Telepopmusik - Breathe
TTITLE15=David Baerwald - Compassion
TTITLE16=Super Furry Animals - (Drawing) Rings Around The World
TTITLE17=Rosey - Love
TTITLE18=Adema - Freaking Out
TTITLE19=Mushroomhead - Along The Way( Movie "The Scorpion King")
TTITLE20=Bad Company - Joe Fabulous
TTITLE21=Seether - Fine Again
TTITLE22=Trik Turner - Sacrifice
EXTD=
EXTT0=
EXTT1=
EXTT2=
EXTT3=
EXTT4=
EXTT5=
EXTT6=
EXTT7=
EXTT8=
EXTT9=
EXTT10=
EXTT11=
EXTT12=
EXTT13=
EXTT14=
EXTT15=
EXTT16=
EXTT17=
EXTT18=
EXTT19=
EXTT20=
EXTT21=
EXTT22=
PLAYORDER=
